<svg width="16" height="16" viewBox="0 0 16 16" fill="none" xmlns="http://www.w3.org/2000/svg">
<g clip-path="url(#clip0_815_400)">
<path d="M16 8C16 3.58172 12.4183 0 8 0C3.58172 0 0 3.58172 0 8C0 12.4183 3.58172 16 8 16C12.4183 16 16 12.4183 16 8Z" fill="white"/>
<path d="M10.4793 7.3846C10.2634 7.61137 9.9037 7.61137 9.68782 7.3846L7.21404 4.79106L3.31232 8.8849L2.94706 8.51857C2.29955 7.8382 2.29955 6.73334 2.94706 6.05294L5.29361 3.58734C5.94112 2.90697 6.99262 2.90697 7.64013 3.58734L10.4793 6.56466C10.6951 6.79149 10.6951 7.15783 10.4793 7.3846ZM10.8667 6.1518C11.2983 6.6054 11.2983 7.34392 10.8667 7.79746C10.1638 8.53598 9.42222 7.9254 9.30044 7.79746L7.21958 5.61099L4.13694 8.85001C3.9211 9.07678 3.9211 9.44318 4.13694 9.66995C4.35278 9.89672 4.70144 9.89672 4.92281 9.66995L7.47964 6.98337L7.87262 7.39623L5.31574 10.0828C5.0999 10.3096 5.0999 10.676 5.31574 10.9027C5.53158 11.1295 5.88024 11.1295 6.10161 10.9027L8.65847 8.21617L9.05139 8.62903L6.49453 11.3156C6.27872 11.5424 6.27872 11.9088 6.49453 12.1356C6.71041 12.3623 7.05902 12.3623 7.2749 12.1356L9.83176 9.44897L10.2247 9.86183L7.66782 12.5484C7.45201 12.7752 7.45201 13.1416 7.66782 13.3684C7.88364 13.5951 8.23232 13.5951 8.44819 13.3684L13.0527 8.51857C13.7003 7.8382 13.7003 6.73334 13.0527 6.05294L10.7062 3.58734C10.0697 2.9186 9.04032 2.90697 8.39281 3.55244L10.8667 6.1518Z" fill="#333333"/>
</g>
<defs>
<clipPath id="clip0_815_400">
<rect width="16" height="16" fill="white"/>
</clipPath>
</defs>
</svg>
