<svg width="32" height="32" viewBox="0 0 32 32" fill="none" xmlns="http://www.w3.org/2000/svg">
<g clip-path="url(#clip0_815_397)">
<path d="M32 16C32 7.16344 24.8366 0 16 0C7.16344 0 0 7.16344 0 16C0 24.8366 7.16344 32 16 32C24.8366 32 32 24.8366 32 16Z" fill="white"/>
<path d="M20.9588 14.7692C20.527 15.2227 19.8076 15.2227 19.3759 14.7692L14.4283 9.58213L6.62489 17.7698L5.89437 17.0371C4.59934 15.6764 4.59934 13.4667 5.89437 12.1059L10.5875 7.17467C11.8825 5.81393 13.9855 5.81393 15.2805 7.17467L20.9588 13.1293C21.3904 13.583 21.3904 14.3157 20.9588 14.7692ZM21.7336 12.3036C22.5969 13.2108 22.5969 14.6878 21.7336 15.5949C20.3279 17.072 18.8447 15.8508 18.6011 15.5949L14.4394 11.222L8.27412 17.7C7.84244 18.1536 7.84244 18.8864 8.27412 19.3399C8.7058 19.7934 9.40312 19.7934 9.84586 19.3399L14.9595 13.9667L15.7455 14.7925L10.6317 20.1656C10.2001 20.6192 10.2001 21.352 10.6317 21.8055C11.0634 22.259 11.7607 22.259 12.2035 21.8055L17.3172 16.4323L18.103 17.2581L12.9893 22.6312C12.5577 23.0848 12.5577 23.8176 12.9893 24.2711C13.4211 24.7246 14.1183 24.7246 14.55 24.2711L19.6638 18.8979L20.4496 19.7237L15.3359 25.0968C14.9043 25.5504 14.9043 26.2832 15.3359 26.7367C15.7675 27.1902 16.4649 27.1902 16.8966 26.7367L26.1056 17.0371C27.4008 15.6764 27.4008 13.4667 26.1056 12.1059L21.4126 7.17467C20.1397 5.83719 18.0809 5.81393 16.7859 7.10489L21.7336 12.3036Z" fill="#333333"/>
</g>
<defs>
<clipPath id="clip0_815_397">
<rect width="32" height="32" fill="white"/>
</clipPath>
</defs>
</svg>
