<svg width="344" height="71" viewBox="0 0 344 71" fill="none" xmlns="http://www.w3.org/2000/svg">
<path d="M36.576 17.3709C36.1746 16.5331 35.3262 16 34.3945 16C33.4627 16 32.6219 16.5331 32.2129 17.3709L27.3422 27.4474L16.4646 29.062C15.5556 29.1991 14.7981 29.8389 14.5178 30.7148C14.2375 31.5906 14.4648 32.5579 15.1162 33.2053L23.0093 41.0577L21.1459 52.1547C20.9944 53.0687 21.3731 53.9979 22.123 54.5387C22.873 55.0794 23.8653 55.148 24.6834 54.7138L34.402 49.4966L44.1207 54.7138C44.9388 55.148 45.9311 55.087 46.681 54.5387C47.4309 53.9903 47.8097 53.0687 47.6582 52.1547L45.7872 41.0577L53.6803 33.2053C54.3317 32.5579 54.5665 31.5906 54.2787 30.7148C53.9908 29.8389 53.2409 29.1991 52.3319 29.062L41.4467 27.4474L36.576 17.3709Z" fill="#333333"/>
<path d="M105.376 17.3709C104.974 16.5331 104.126 16 103.194 16C102.263 16 101.422 16.5331 101.013 17.3709L96.142 27.4474L85.2644 29.062C84.3554 29.1991 83.5979 29.8389 83.3176 30.7148C83.0373 31.5906 83.2646 32.5579 83.916 33.2053L91.8091 41.0577L89.9457 52.1547C89.7942 53.0687 90.1729 53.9979 90.9229 54.5387C91.6728 55.0794 92.6651 55.148 93.4832 54.7138L103.202 49.4966L112.92 54.7138C113.739 55.148 114.731 55.087 115.481 54.5387C116.231 53.9903 116.609 53.0687 116.458 52.1547L114.587 41.0577L122.48 33.2053C123.132 32.5579 123.366 31.5906 123.078 30.7148C122.791 29.8389 122.041 29.1991 121.132 29.062L110.247 27.4474L105.376 17.3709Z" fill="#333333"/>
<path d="M174.176 17.3709C173.775 16.5331 172.926 16 171.995 16C171.063 16 170.222 16.5331 169.813 17.3709L164.942 27.4474L154.065 29.062C153.156 29.1991 152.398 29.8389 152.118 30.7148C151.838 31.5906 152.065 32.5579 152.716 33.2053L160.609 41.0577L158.746 52.1547C158.594 53.0687 158.973 53.9979 159.723 54.5387C160.473 55.0794 161.465 55.148 162.283 54.7138L172.002 49.4966L181.721 54.7138C182.539 55.148 183.531 55.087 184.281 54.5387C185.031 53.9903 185.41 53.0687 185.258 52.1547L183.387 41.0577L191.28 33.2053C191.932 32.5579 192.167 31.5906 191.879 30.7148C191.591 29.8389 190.841 29.1991 189.932 29.062L179.047 27.4474L174.176 17.3709Z" fill="#333333"/>
<path d="M242.976 17.3709C242.574 16.5331 241.726 16 240.794 16C239.863 16 239.022 16.5331 238.613 17.3709L233.742 27.4474L222.864 29.062C221.955 29.1991 221.198 29.8389 220.918 30.7148C220.637 31.5906 220.865 32.5579 221.516 33.2053L229.409 41.0577L227.546 52.1547C227.394 53.0687 227.773 53.9979 228.523 54.5387C229.273 55.0794 230.265 55.148 231.083 54.7138L240.802 49.4966L250.521 54.7138C251.339 55.148 252.331 55.087 253.081 54.5387C253.831 53.9903 254.21 53.0687 254.058 52.1547L252.187 41.0577L260.08 33.2053C260.732 32.5579 260.966 31.5906 260.679 30.7148C260.391 29.8389 259.641 29.1991 258.732 29.062L247.847 27.4474L242.976 17.3709Z" fill="#333333"/>
<path d="M311.776 17.3709C311.375 16.5331 310.526 16 309.595 16C308.663 16 307.822 16.5331 307.413 17.3709L302.542 27.4474L291.665 29.062C290.756 29.1991 289.998 29.8389 289.718 30.7148C289.438 31.5906 289.665 32.5579 290.316 33.2053L298.21 41.0577L296.346 52.1547C296.195 53.0687 296.573 53.9979 297.323 54.5387C298.073 55.0794 299.065 55.148 299.884 54.7138L309.602 49.4966L319.321 54.7138C320.139 55.148 321.131 55.087 321.881 54.5387C322.631 53.9903 323.01 53.0687 322.858 52.1547L320.987 41.0577L328.88 33.2053C329.532 32.5579 329.767 31.5906 329.479 30.7148C329.191 29.8389 328.441 29.1991 327.532 29.062L316.647 27.4474L311.776 17.3709Z" fill="#333333"/>
</svg>
