<svg width="26" height="26" viewBox="0 0 26 26" fill="none" xmlns="http://www.w3.org/2000/svg">
<rect width="26" height="26" rx="13" fill="white"/>
<path d="M17.029 12C16.6782 12.3685 16.0937 12.3685 15.7429 12L11.723 7.78551L5.38271 14.438L4.78916 13.8427C3.73695 12.7371 3.73695 10.9417 4.78916 9.83606L8.6023 5.82945C9.65451 4.72385 11.3632 4.72385 12.4154 5.82945L17.029 10.6676C17.3797 11.0362 17.3797 11.6315 17.029 12ZM17.6585 9.9967C18.36 10.7338 18.36 11.9339 17.6585 12.6709C16.5164 13.871 15.3113 12.8788 15.1134 12.6709L11.732 9.11789L6.72271 14.3813C6.37197 14.7498 6.37197 15.3452 6.72271 15.7137C7.07345 16.0822 7.64002 16.0822 7.99975 15.7137L12.1546 11.348L12.7932 12.0189L8.63827 16.3846C8.28753 16.7531 8.28753 17.3485 8.63827 17.717C8.98901 18.0855 9.55558 18.0855 9.91531 17.717L14.0702 13.3513L14.7087 14.0222L10.5538 18.3879C10.2031 18.7564 10.2031 19.3518 10.5538 19.7203C10.9046 20.0888 11.4711 20.0888 11.8219 19.7203L15.9768 15.3546L16.6153 16.0255L12.4604 20.3912C12.1097 20.7597 12.1097 21.3551 12.4604 21.7236C12.8111 22.0921 13.3777 22.0921 13.7285 21.7236L21.2108 13.8427C22.2631 12.7371 22.2631 10.9417 21.2108 9.83606L17.3977 5.82945C16.3635 4.74275 14.6907 4.72385 13.6385 5.77275L17.6585 9.9967Z" fill="#333333"/>
</svg>
