<svg width="191" height="72" viewBox="0 0 191 72" fill="none" xmlns="http://www.w3.org/2000/svg">
<path d="M3.008 44V21.6H13.504C16.192 21.6 18.24 22.1333 19.648 23.2C21.056 24.2453 21.76 25.6533 21.76 27.424C21.76 28.6187 21.4827 29.6427 20.928 30.496C20.3733 31.328 19.6267 31.9787 18.688 32.448C17.7707 32.896 16.768 33.12 15.68 33.12L16.256 31.968C17.5147 31.968 18.6453 32.2027 19.648 32.672C20.6507 33.12 21.44 33.7813 22.016 34.656C22.6133 35.5307 22.912 36.6187 22.912 37.92C22.912 39.84 22.176 41.3333 20.704 42.4C19.232 43.4667 17.0453 44 14.144 44H3.008ZM7.168 40.736H13.888C15.4453 40.736 16.64 40.48 17.472 39.968C18.304 39.456 18.72 38.6347 18.72 37.504C18.72 36.3947 18.304 35.584 17.472 35.072C16.64 34.5387 15.4453 34.272 13.888 34.272H6.848V31.04H13.056C14.5067 31.04 15.616 30.784 16.384 30.272C17.1733 29.76 17.568 28.992 17.568 27.968C17.568 26.9227 17.1733 26.144 16.384 25.632C15.616 25.12 14.5067 24.864 13.056 24.864H7.168V40.736ZM37.4958 44V40.544L37.2718 39.808V33.76C37.2718 32.5867 36.9198 31.68 36.2158 31.04C35.5118 30.3787 34.4451 30.048 33.0158 30.048C32.0558 30.048 31.1064 30.1973 30.1678 30.496C29.2504 30.7947 28.4718 31.2107 27.8318 31.744L26.2638 28.832C27.1811 28.128 28.2691 27.6053 29.5278 27.264C30.8078 26.9013 32.1304 26.72 33.4958 26.72C35.9704 26.72 37.8798 27.3173 39.2238 28.512C40.5891 29.6853 41.2718 31.5093 41.2718 33.984V44H37.4958ZM32.1198 44.224C30.8398 44.224 29.7198 44.0107 28.7598 43.584C27.7998 43.136 27.0531 42.528 26.5198 41.76C26.0078 40.9707 25.7518 40.0853 25.7518 39.104C25.7518 38.144 25.9758 37.28 26.4238 36.512C26.8931 35.744 27.6504 35.136 28.6958 34.688C29.7411 34.24 31.1278 34.016 32.8558 34.016H37.8158V36.672H33.1438C31.7784 36.672 30.8611 36.896 30.3918 37.344C29.9224 37.7707 29.6878 38.304 29.6878 38.944C29.6878 39.6693 29.9758 40.2453 30.5518 40.672C31.1278 41.0987 31.9278 41.312 32.9518 41.312C33.9331 41.312 34.8078 41.088 35.5758 40.64C36.3651 40.192 36.9304 39.5307 37.2718 38.656L37.9438 41.056C37.5598 42.0587 36.8664 42.8373 35.8638 43.392C34.8824 43.9467 33.6344 44.224 32.1198 44.224ZM46.4053 44V20.256H50.4053V44H46.4053ZM66.1833 44V40.544L65.9593 39.808V33.76C65.9593 32.5867 65.6073 31.68 64.9033 31.04C64.1993 30.3787 63.1326 30.048 61.7033 30.048C60.7433 30.048 59.7939 30.1973 58.8553 30.496C57.9379 30.7947 57.1593 31.2107 56.5193 31.744L54.9513 28.832C55.8686 28.128 56.9566 27.6053 58.2153 27.264C59.4953 26.9013 60.8179 26.72 62.1833 26.72C64.6579 26.72 66.5673 27.3173 67.9113 28.512C69.2766 29.6853 69.9593 31.5093 69.9593 33.984V44H66.1833ZM60.8073 44.224C59.5273 44.224 58.4073 44.0107 57.4473 43.584C56.4873 43.136 55.7406 42.528 55.2073 41.76C54.6953 40.9707 54.4393 40.0853 54.4393 39.104C54.4393 38.144 54.6633 37.28 55.1113 36.512C55.5806 35.744 56.3379 35.136 57.3833 34.688C58.4286 34.24 59.8153 34.016 61.5433 34.016H66.5033V36.672H61.8313C60.4659 36.672 59.5486 36.896 59.0793 37.344C58.6099 37.7707 58.3753 38.304 58.3753 38.944C58.3753 39.6693 58.6633 40.2453 59.2393 40.672C59.8153 41.0987 60.6153 41.312 61.6393 41.312C62.6206 41.312 63.4953 41.088 64.2633 40.64C65.0526 40.192 65.6179 39.5307 65.9593 38.656L66.6313 41.056C66.2473 42.0587 65.5539 42.8373 64.5513 43.392C63.5699 43.9467 62.3219 44.224 60.8073 44.224ZM84.7888 26.72C86.1541 26.72 87.3701 26.9867 88.4368 27.52C89.5248 28.0533 90.3781 28.8747 90.9968 29.984C91.6154 31.072 91.9248 32.48 91.9248 34.208V44H87.9248V34.72C87.9248 33.2053 87.5621 32.0747 86.8368 31.328C86.1328 30.5813 85.1408 30.208 83.8608 30.208C82.9221 30.208 82.0901 30.4 81.3648 30.784C80.6394 31.168 80.0741 31.744 79.6688 32.512C79.2848 33.2587 79.0928 34.208 79.0928 35.36V44H75.0928V26.912H78.9008V31.52L78.2288 30.112C78.8261 29.024 79.6901 28.192 80.8208 27.616C81.9728 27.0187 83.2954 26.72 84.7888 26.72ZM104.87 44.224C103.078 44.224 101.478 43.8507 100.07 43.104C98.6836 42.336 97.5956 41.2907 96.8063 39.968C96.0169 38.6453 95.6223 37.1413 95.6223 35.456C95.6223 33.7493 96.0169 32.2453 96.8063 30.944C97.5956 29.6213 98.6836 28.5867 100.07 27.84C101.478 27.0933 103.078 26.72 104.87 26.72C106.534 26.72 107.996 27.0613 109.254 27.744C110.534 28.4053 111.505 29.3867 112.166 30.688L109.094 32.48C108.582 31.6693 107.953 31.072 107.206 30.688C106.481 30.304 105.692 30.112 104.838 30.112C103.857 30.112 102.972 30.3253 102.182 30.752C101.393 31.1787 100.774 31.7973 100.326 32.608C99.8783 33.3973 99.6543 34.3467 99.6543 35.456C99.6543 36.5653 99.8783 37.5253 100.326 38.336C100.774 39.1253 101.393 39.7333 102.182 40.16C102.972 40.5867 103.857 40.8 104.838 40.8C105.692 40.8 106.481 40.608 107.206 40.224C107.953 39.84 108.582 39.2427 109.094 38.432L112.166 40.224C111.505 41.504 110.534 42.496 109.254 43.2C107.996 43.8827 106.534 44.224 104.87 44.224ZM126.441 44.32C124.691 44.32 123.081 44.0427 121.609 43.488C120.158 42.912 118.889 42.112 117.801 41.088C116.713 40.0427 115.87 38.816 115.273 37.408C114.675 36 114.377 34.464 114.377 32.8C114.377 31.136 114.675 29.6 115.273 28.192C115.87 26.784 116.713 25.568 117.801 24.544C118.91 23.4987 120.201 22.6987 121.673 22.144C123.145 21.568 124.755 21.28 126.505 21.28C128.403 21.28 130.11 21.5893 131.625 22.208C133.161 22.8267 134.451 23.7333 135.497 24.928L132.873 27.488C131.998 26.6133 131.049 25.9733 130.025 25.568C129.022 25.1413 127.913 24.928 126.697 24.928C125.523 24.928 124.435 25.12 123.433 25.504C122.43 25.888 121.566 26.432 120.841 27.136C120.115 27.84 119.55 28.672 119.145 29.632C118.761 30.592 118.569 31.648 118.569 32.8C118.569 33.9307 118.761 34.976 119.145 35.936C119.55 36.896 120.115 37.7387 120.841 38.464C121.566 39.168 122.419 39.712 123.401 40.096C124.382 40.48 125.47 40.672 126.665 40.672C127.774 40.672 128.841 40.5013 129.865 40.16C130.91 39.7973 131.902 39.2 132.841 38.368L135.209 41.472C134.035 42.4107 132.67 43.1253 131.113 43.616C129.577 44.0853 128.019 44.32 126.441 44.32ZM131.273 40.928V32.544H135.209V41.472L131.273 40.928ZM150.84 44V40.544L150.616 39.808V33.76C150.616 32.5867 150.264 31.68 149.56 31.04C148.856 30.3787 147.789 30.048 146.36 30.048C145.4 30.048 144.45 30.1973 143.512 30.496C142.594 30.7947 141.816 31.2107 141.176 31.744L139.608 28.832C140.525 28.128 141.613 27.6053 142.872 27.264C144.152 26.9013 145.474 26.72 146.84 26.72C149.314 26.72 151.224 27.3173 152.568 28.512C153.933 29.6853 154.616 31.5093 154.616 33.984V44H150.84ZM145.464 44.224C144.184 44.224 143.064 44.0107 142.104 43.584C141.144 43.136 140.397 42.528 139.864 41.76C139.352 40.9707 139.096 40.0853 139.096 39.104C139.096 38.144 139.32 37.28 139.768 36.512C140.237 35.744 140.994 35.136 142.04 34.688C143.085 34.24 144.472 34.016 146.2 34.016H151.16V36.672H146.488C145.122 36.672 144.205 36.896 143.736 37.344C143.266 37.7707 143.032 38.304 143.032 38.944C143.032 39.6693 143.32 40.2453 143.896 40.672C144.472 41.0987 145.272 41.312 146.296 41.312C147.277 41.312 148.152 41.088 148.92 40.64C149.709 40.192 150.274 39.5307 150.616 38.656L151.288 41.056C150.904 42.0587 150.21 42.8373 149.208 43.392C148.226 43.9467 146.978 44.224 145.464 44.224ZM166.181 44.224C164.304 44.224 162.853 43.744 161.829 42.784C160.805 41.8027 160.293 40.3627 160.293 38.464V23.136H164.293V38.368C164.293 39.1787 164.496 39.808 164.901 40.256C165.328 40.704 165.914 40.928 166.661 40.928C167.557 40.928 168.304 40.6933 168.901 40.224L170.021 43.072C169.552 43.456 168.976 43.744 168.293 43.936C167.61 44.128 166.906 44.224 166.181 44.224ZM157.477 30.24V27.04H168.869V30.24H157.477ZM180.781 44.224C178.882 44.224 177.218 43.8507 175.789 43.104C174.381 42.336 173.282 41.2907 172.493 39.968C171.725 38.6453 171.341 37.1413 171.341 35.456C171.341 33.7493 171.714 32.2453 172.461 30.944C173.229 29.6213 174.274 28.5867 175.597 27.84C176.941 27.0933 178.466 26.72 180.173 26.72C181.837 26.72 183.32 27.0827 184.621 27.808C185.922 28.5333 186.946 29.5573 187.693 30.88C188.44 32.2027 188.813 33.76 188.813 35.552C188.813 35.7227 188.802 35.9147 188.781 36.128C188.781 36.3413 188.77 36.544 188.749 36.736H174.509V34.08H186.637L185.069 34.912C185.09 33.9307 184.888 33.0667 184.461 32.32C184.034 31.5733 183.448 30.9867 182.701 30.56C181.976 30.1333 181.133 29.92 180.173 29.92C179.192 29.92 178.328 30.1333 177.581 30.56C176.856 30.9867 176.28 31.584 175.853 32.352C175.448 33.0987 175.245 33.984 175.245 35.008V35.648C175.245 36.672 175.48 37.5787 175.949 38.368C176.418 39.1573 177.08 39.7653 177.933 40.192C178.786 40.6187 179.768 40.832 180.877 40.832C181.837 40.832 182.701 40.6827 183.469 40.384C184.237 40.0853 184.92 39.616 185.517 38.976L187.661 41.44C186.893 42.336 185.922 43.0293 184.749 43.52C183.597 43.9893 182.274 44.224 180.781 44.224Z" fill="#333333"/>
<path d="M5.37531 68V56.8H6.68731L11.7113 65.264H11.0073L15.9673 56.8H17.2793L17.2953 68H15.7593L15.7433 59.216H16.1113L11.6953 66.64H10.9593L6.51131 59.216H6.91131V68H5.37531ZM18.9606 68L24.0326 56.8H25.6166L30.7046 68H29.0246L24.4966 57.696H25.1366L20.6086 68H18.9606ZM21.1206 65.2L21.5526 63.92H27.8566L28.3206 65.2H21.1206ZM35.6393 68.128C34.786 68.128 33.97 68 33.1913 67.744C32.4126 67.4773 31.7993 67.136 31.3513 66.72L31.9433 65.472C32.37 65.8453 32.914 66.1547 33.5753 66.4C34.2366 66.6453 34.9246 66.768 35.6393 66.768C36.29 66.768 36.818 66.6933 37.2233 66.544C37.6286 66.3947 37.9273 66.192 38.1193 65.936C38.3113 65.6693 38.4073 65.3707 38.4073 65.04C38.4073 64.656 38.2793 64.3467 38.0233 64.112C37.778 63.8773 37.4526 63.6907 37.0473 63.552C36.6526 63.4027 36.2153 63.2747 35.7353 63.168C35.2553 63.0613 34.77 62.9387 34.2793 62.8C33.7993 62.6507 33.3566 62.464 32.9513 62.24C32.5566 62.016 32.2366 61.7173 31.9913 61.344C31.746 60.96 31.6233 60.4693 31.6233 59.872C31.6233 59.296 31.7726 58.768 32.0713 58.288C32.3806 57.7973 32.85 57.408 33.4793 57.12C34.1193 56.8213 34.93 56.672 35.9113 56.672C36.562 56.672 37.2073 56.7573 37.8473 56.928C38.4873 57.0987 39.042 57.344 39.5113 57.664L38.9833 58.944C38.5033 58.624 37.9966 58.3947 37.4633 58.256C36.93 58.1067 36.4126 58.032 35.9113 58.032C35.282 58.032 34.7646 58.112 34.3593 58.272C33.954 58.432 33.6553 58.6453 33.4633 58.912C33.282 59.1787 33.1913 59.4773 33.1913 59.808C33.1913 60.2027 33.314 60.5173 33.5593 60.752C33.8153 60.9867 34.1406 61.1733 34.5353 61.312C34.9406 61.4507 35.3833 61.5787 35.8633 61.696C36.3433 61.8027 36.8233 61.9253 37.3033 62.064C37.794 62.2027 38.2366 62.384 38.6313 62.608C39.0366 62.832 39.362 63.1307 39.6073 63.504C39.8526 63.8773 39.9753 64.3573 39.9753 64.944C39.9753 65.5093 39.8206 66.0373 39.5113 66.528C39.202 67.008 38.722 67.3973 38.0713 67.696C37.4313 67.984 36.6206 68.128 35.6393 68.128ZM40.6168 68L45.6888 56.8H47.2728L52.3608 68H50.6808L46.1528 57.696H46.7928L42.2648 68H40.6168ZM42.7768 65.2L43.2088 63.92H49.5128L49.9768 65.2H42.7768ZM45.2888 55.888L47.4648 53.808H49.4168L46.7288 55.888H45.2888ZM53.0396 68V66.912L60.5756 57.568L60.7516 58.192H53.1516V56.8H62.1916V57.888L54.6876 67.232L54.4956 66.608H62.3996V68H53.0396ZM56.9916 55.888L54.8636 53.808H56.2556L58.3676 55.552H57.0876L59.1996 53.808H60.5916L58.4636 55.888H56.9916ZM66.0032 61.632H71.7632V62.992H66.0032V61.632ZM66.1472 66.608H72.6752V68H64.5472V56.8H72.4512V58.192H66.1472V66.608ZM77.8668 68L82.9388 56.8H84.5228L89.6108 68H87.9308L83.4028 57.696H84.0428L79.5148 68H77.8668ZM80.0268 65.2L80.4588 63.92H86.7628L87.2268 65.2H80.0268ZM97.8024 68V58.192H93.9624V56.8H103.226V58.192H99.3864V68H97.8024ZM106.425 61.632H112.185V62.992H106.425V61.632ZM106.569 66.608H113.097V68H104.969V56.8H112.873V58.192H106.569V66.608ZM117.128 68.128C116.466 68.128 115.848 67.9893 115.272 67.712C114.696 67.4347 114.226 67.0347 113.864 66.512L114.792 65.424C115.101 65.8507 115.448 66.1813 115.832 66.416C116.226 66.64 116.658 66.752 117.128 66.752C118.408 66.752 119.048 65.9947 119.048 64.48V58.192H115V56.8H120.632V64.4C120.632 65.648 120.333 66.5813 119.736 67.2C119.149 67.8187 118.28 68.128 117.128 68.128ZM123.891 68V56.8H128.259C129.24 56.8 130.078 56.9547 130.771 57.264C131.464 57.5733 131.998 58.0213 132.371 58.608C132.744 59.1947 132.931 59.8933 132.931 60.704C132.931 61.5147 132.744 62.2133 132.371 62.8C131.998 63.376 131.464 63.824 130.771 64.144C130.078 64.4533 129.24 64.608 128.259 64.608H124.771L125.491 63.856V68H123.891ZM125.491 64.016L124.771 63.216H128.211C129.235 63.216 130.008 62.9973 130.531 62.56C131.064 62.1227 131.331 61.504 131.331 60.704C131.331 59.904 131.064 59.2853 130.531 58.848C130.008 58.4107 129.235 58.192 128.211 58.192H124.771L125.491 57.392V64.016ZM140.494 68.128C139.64 68.128 138.846 67.984 138.11 67.696C137.384 67.408 136.755 67.008 136.222 66.496C135.688 65.9733 135.272 65.3653 134.974 64.672C134.675 63.9787 134.526 63.2213 134.526 62.4C134.526 61.5787 134.675 60.8213 134.974 60.128C135.272 59.4347 135.688 58.832 136.222 58.32C136.755 57.7973 137.384 57.392 138.11 57.104C138.835 56.816 139.63 56.672 140.494 56.672C141.347 56.672 142.131 56.816 142.846 57.104C143.571 57.3813 144.2 57.7813 144.734 58.304C145.278 58.816 145.694 59.4187 145.982 60.112C146.28 60.8053 146.43 61.568 146.43 62.4C146.43 63.232 146.28 63.9947 145.982 64.688C145.694 65.3813 145.278 65.9893 144.734 66.512C144.2 67.024 143.571 67.424 142.846 67.712C142.131 67.9893 141.347 68.128 140.494 68.128ZM140.494 66.704C141.112 66.704 141.683 66.5973 142.206 66.384C142.739 66.1707 143.198 65.872 143.582 65.488C143.976 65.0933 144.28 64.6347 144.494 64.112C144.718 63.5893 144.83 63.0187 144.83 62.4C144.83 61.7813 144.718 61.2107 144.494 60.688C144.28 60.1653 143.976 59.712 143.582 59.328C143.198 58.9333 142.739 58.6293 142.206 58.416C141.683 58.2027 141.112 58.096 140.494 58.096C139.864 58.096 139.283 58.2027 138.75 58.416C138.227 58.6293 137.768 58.9333 137.374 59.328C136.979 59.712 136.67 60.1653 136.446 60.688C136.232 61.2107 136.126 61.7813 136.126 62.4C136.126 63.0187 136.232 63.5893 136.446 64.112C136.67 64.6347 136.979 65.0933 137.374 65.488C137.768 65.872 138.227 66.1707 138.75 66.384C139.283 66.5973 139.864 66.704 140.494 66.704ZM151.764 68L146.836 56.8H148.564L153.092 67.136H152.1L156.66 56.8H158.26L153.348 68H151.764ZM157.632 68L162.704 56.8H164.288L169.376 68H167.696L163.168 57.696H163.808L159.28 68H157.632ZM159.792 65.2L160.224 63.92H166.528L166.992 65.2H159.792ZM162.304 55.888L164.48 53.808H166.432L163.744 55.888H162.304ZM171.047 68V56.8H172.359L179.767 66H179.079V56.8H180.679V68H179.367L171.959 58.8H172.647V68H171.047ZM184.032 68V56.8H185.632V68H184.032ZM183.632 55.888L185.808 53.808H187.76L185.072 55.888H183.632Z" fill="#333333"/>
<rect y="12" width="82.5" height="1" fill="#333333"/>
<path d="M99.529 11C99.1782 11.3685 98.5937 11.3685 98.2429 11L94.223 6.78551L87.8827 13.438L87.2892 12.8427C86.2369 11.7371 86.2369 9.94166 87.2892 8.83606L91.1023 4.82945C92.1545 3.72385 93.8632 3.72385 94.9154 4.82945L99.529 9.66762C99.8797 10.0362 99.8797 10.6315 99.529 11ZM100.159 8.9967C100.86 9.73377 100.86 10.9339 100.159 11.6709C99.0164 12.871 97.8113 11.8788 97.6134 11.6709L94.232 8.11789L89.2227 13.3813C88.872 13.7498 88.872 14.3452 89.2227 14.7137C89.5734 15.0822 90.14 15.0822 90.4998 14.7137L94.6546 10.348L95.2932 11.0189L91.1383 15.3846C90.7875 15.7531 90.7875 16.3485 91.1383 16.717C91.489 17.0855 92.0556 17.0855 92.4153 16.717L96.5702 12.3513L97.2087 13.0222L93.0538 17.3879C92.7031 17.7564 92.7031 18.3518 93.0538 18.7203C93.4046 19.0888 93.9711 19.0888 94.3219 18.7203L98.4768 14.3546L99.1153 15.0255L94.9604 19.3912C94.6097 19.7597 94.6097 20.3551 94.9604 20.7236C95.3111 21.0921 95.8777 21.0921 96.2285 20.7236L103.711 12.8427C104.763 11.7371 104.763 9.94166 103.711 8.83606L99.8977 4.82945C98.8635 3.74275 97.1907 3.72385 96.1385 4.77275L100.159 8.9967Z" fill="#333333"/>
<rect x="108.5" y="12" width="82.5" height="1" fill="#333333"/>
</svg>
